<?xml version="1.0" encoding="UTF-8" standalone="no"?>
<!-- Created with Inkscape (http://www.inkscape.org/) -->

<svg
   xmlns:dc="http://purl.org/dc/elements/1.1/"
   xmlns:cc="http://creativecommons.org/ns#"
   xmlns:rdf="http://www.w3.org/1999/02/22-rdf-syntax-ns#"
   xmlns:svg="http://www.w3.org/2000/svg"
   xmlns="http://www.w3.org/2000/svg"
   xmlns:sodipodi="http://sodipodi.sourceforge.net/DTD/sodipodi-0.dtd"
   xmlns:inkscape="http://www.inkscape.org/namespaces/inkscape"
   width="383.61459"
   height="87.699997"
   id="svg2"
   version="1.1"
   inkscape:version="0.48.5 r10040"
   sodipodi:docname="logo_final2.svg"
   inkscape:export-filename="/data/svn/claesenm/python/optunity/logo/logo_small.png"
   inkscape:export-xdpi="46.919998"
   inkscape:export-ydpi="46.919998">
  <defs
     id="defs4">
    <inkscape:path-effect
       effect="skeletal"
       id="path-effect3948"
       is_visible="true"
       pattern="M 0,5 C 0,2.24 2.24,0 5,0 7.76,0 10,2.24 10,5 10,7.76 7.76,10 5,10 2.24,10 0,7.76 0,5 z"
       copytype="single_stretched"
       prop_scale="1"
       scale_y_rel="false"
       spacing="0"
       normal_offset="0"
       tang_offset="0"
       prop_units="false"
       vertical_pattern="false"
       fuse_tolerance="0" />
    <inkscape:path-effect
       effect="spiro"
       id="path-effect3946"
       is_visible="true" />
    <inkscape:path-effect
       effect="skeletal"
       id="path-effect3916"
       is_visible="true"
       pattern="M 0,5 C 0,2.24 2.24,0 5,0 7.76,0 10,2.24 10,5 10,7.76 7.76,10 5,10 2.24,10 0,7.76 0,5 z"
       copytype="single_stretched"
       prop_scale="1"
       scale_y_rel="false"
       spacing="0"
       normal_offset="0"
       tang_offset="0"
       prop_units="false"
       vertical_pattern="false"
       fuse_tolerance="0" />
    <inkscape:path-effect
       effect="spiro"
       id="path-effect3914"
       is_visible="true" />
    <inkscape:path-effect
       effect="skeletal"
       id="path-effect3910"
       is_visible="true"
       pattern="M 0,5 C 0,2.24 2.24,0 5,0 7.76,0 10,2.24 10,5 10,7.76 7.76,10 5,10 2.24,10 0,7.76 0,5 z"
       copytype="single_stretched"
       prop_scale="1"
       scale_y_rel="false"
       spacing="0"
       normal_offset="0"
       tang_offset="0"
       prop_units="false"
       vertical_pattern="false"
       fuse_tolerance="0" />
    <inkscape:path-effect
       effect="spiro"
       id="path-effect3908"
       is_visible="true" />
  </defs>
  <sodipodi:namedview
     id="base"
     pagecolor="#ffffff"
     bordercolor="#666666"
     borderopacity="1.0"
     inkscape:pageopacity="0"
     inkscape:pageshadow="2"
     inkscape:zoom="2.8"
     inkscape:cx="94.584655"
     inkscape:cy="54.116737"
     inkscape:document-units="px"
     inkscape:current-layer="layer1"
     showgrid="false"
     inkscape:window-width="1600"
     inkscape:window-height="814"
     inkscape:window-x="0"
     inkscape:window-y="31"
     inkscape:window-maximized="1"
     fit-margin-top="10"
     fit-margin-left="10"
     fit-margin-right="10"
     fit-margin-bottom="10" />
  <metadata
     id="metadata7">
    <rdf:RDF>
      <cc:Work
         rdf:about="">
        <dc:format>image/svg+xml</dc:format>
        <dc:type
           rdf:resource="http://purl.org/dc/dcmitype/StillImage" />
        <dc:title></dc:title>
      </cc:Work>
    </rdf:RDF>
  </metadata>
  <g
     inkscape:label="Layer 1"
     inkscape:groupmode="layer"
     id="layer1"
     transform="translate(-72.940455,-3.9663411)">
    <path
       style="fill:#ffa432;fill-rule:evenodd;stroke:none;fill-opacity:1"
       d="m 357.28125,10.40625 c -2.144,0.05021 -4.32587,0.377973 -6.46875,1 -4.84546,1.492785 -9.04134,4.332954 -12.34375,7.875 -3.21131,3.419532 -5.70729,7.300299 -7.78125,11.1875 -2.0486,3.727575 -3.79563,7.503004 -5.625,11 -1.82938,3.496997 -3.74486,6.689484 -6.21875,9.28125 -3.62256,4.021264 -8.69031,7.013331 -14.21875,8.9375 -4.97809,1.724225 -10.42175,2.49602 -16.0625,2.71875 -0.50429,0.01991 -1.02603,0.05119 -1.53125,0.0625 -7.26273,0.164506 -14.46847,-0.643798 -21.59375,-1.96875 -7.12529,-1.324951 -14.16718,-3.162925 -21.0625,-5.125 -7.42077,-2.138987 -14.72142,-4.442499 -22,-6.53125 -7.27859,-2.088751 -14.53409,-3.966563 -21.75,-5.3125 -12.77903,-2.362243 -25.17258,-2.924148 -36.71875,-2.25 -11.54618,0.674149 -22.22563,2.57665 -31.78125,5.15625 -10.25997,2.765988 -19.2367,6.303219 -26.8125,9.96875 -7.575799,3.665532 -13.777926,7.447934 -18.625,10.8125 -4.847073,3.364567 -8.356191,6.319827 -10.625,8.4375 -2.26881,2.117672 -3.311774,3.416208 -3.09375,3.6875 0.218024,0.271292 1.683128,-0.494058 4.3125,-2.0625 2.629373,-1.568441 6.431342,-3.945197 11.46875,-6.71875 5.037409,-2.773553 11.32035,-5.944596 18.84375,-9 7.5234,-3.055404 16.30112,-6.000628 26.21875,-8.21875 9.23837,-2.062742 19.47067,-3.501444 30.4375,-3.8125 10.96683,-0.311055 22.66928,0.506402 34.625,2.96875 6.78039,1.384084 13.682,3.313576 20.78125,5.46875 7.09925,2.155175 14.39366,4.530922 21.96875,6.78125 7.03202,2.114481 14.38957,4.104426 22,5.53125 7.61044,1.426823 15.474,2.30753 23.59375,2.1875 0.56607,-0.0085 1.14961,-0.04233 1.71875,-0.0625 6.36611,-0.225615 12.78389,-1.182701 18.9375,-3.28125 6.88615,-2.339166 13.31114,-6.268147 18.28125,-11.71875 3.19091,-3.652659 5.54397,-7.569373 7.5625,-11.40625 2.01852,-3.836876 3.68109,-7.620314 5.4375,-11.03125 1.86123,-3.495516 3.81518,-6.686507 6.1875,-9.21875 2.43027,-2.568613 5.20805,-4.621792 8.15625,-5.5 2.56618,-0.84045 5.46226,-0.896072 8.21875,-0.375 2.85005,0.539297 5.62382,1.773183 8.125,3.40625 2.65435,1.701397 4.95706,3.938577 7.03125,6.40625 2.0742,2.467674 3.90389,5.169445 5.59375,7.9375 1.82028,3.033736 3.45824,6.178601 5.09375,9.3125 1.63551,3.133899 3.29111,6.278604 5.0625,9.28125 1.96902,3.387211 4.15766,6.589352 6.625,9.46875 2.46735,2.879397 5.21263,5.436169 8.1875,7.5 4.75897,3.241248 9.92318,5.021835 14.8125,5.71875 4.88932,0.696915 9.49416,0.296195 13.5,-0.75 4.52779,-1.192353 8.22058,-3.180756 11.09375,-5.28125 2.87316,-2.100493 4.94087,-4.330452 6.40625,-6.25 1.46538,-1.919548 2.32989,-3.548075 2.8125,-4.6875 0.48263,-1.139425 0.59407,-1.769726 0.40625,-1.875 -0.18782,-0.105274 -0.66216,0.344553 -1.46875,1.21875 -0.8066,0.874196 -1.95046,2.167456 -3.59375,3.6875 -1.6433,1.520044 -3.79344,3.2614 -6.5625,4.84375 -2.76907,1.582351 -6.17686,2.996216 -10.125,3.6875 -3.48958,0.61954 -7.42245,0.666531 -11.5,-0.1875 -4.07754,-0.85403 -8.30454,-2.610302 -12,-5.4375 -2.37064,-1.773088 -4.53138,-3.991544 -6.53125,-6.59375 -1.99986,-2.602207 -3.82137,-5.576061 -5.5625,-8.75 -1.53633,-2.846845 -3.00422,-5.901088 -4.53125,-9.09375 -1.52702,-3.192662 -3.12184,-6.526641 -5,-9.90625 -1.70899,-3.12578 -3.73145,-6.290141 -6.15625,-9.28125 -2.4248,-2.991109 -5.2564,-5.803001 -8.65625,-8.21875 -3.25327,-2.280235 -7.04677,-4.070496 -11.21875,-5 -2.03312,-0.453021 -4.13725,-0.675209 -6.28125,-0.625 z"
       id="path3906"
       inkscape:connector-curvature="0" />
    <path
       style="fill:#3944ff;fill-opacity:1;stroke:none"
       d="m 131.31799,4.086265 c -1.37639,0.02283 -2.66203,0.884123 -3.21874,2.25 0,0 -0.65923,4.761951 -2.4375,5.968749 -2.74967,1.866029 -7.19111,1.917842 -9.96875,0.0937 -1.81441,-1.191567 -2.53125,-5.999999 -2.53125,-5.999999 -0.7628,-1.81321 -2.84329,-2.66961 -4.65625,-1.90625 l -9.843757,4.15625 c -1.812636,0.76255 -2.669349,2.843849 -1.90625,4.656249 0,0 2.915748,3.873595 2.5,6 -0.636017,3.253003 -3.752786,6.397561 -7,7.0625 -2.114855,0.433063 -6,-2.4375 -6,-2.4375 -1.821157,-0.74228 -3.882723,0.085 -4.625,1.90625 l -4.03125,9.90625 c -0.742276,1.82115 0.147592,3.85147 1.96875,4.59375 0,0 4.78895,0.650459 6,2.4375 1.864188,2.75082 1.890941,7.194041 0.0625,9.96875 -1.194405,1.812542 -6,2.53125 -6,2.53125 -1.813199,0.762786 -2.638356,2.843276 -1.875,4.656246 l 4.125,9.84375 c 0.762555,1.81264 2.843857,2.66935 4.65625,1.90625 0,0 3.873138,-2.913401 6,-2.5 3.260973,0.63384 6.430995,3.74478 7.09375,7 0.431467,2.119205 -2.46875,6 -2.46875,6 -0.74228,1.82115 0.116327,3.88272 1.9375,4.625 l 9.875007,4.03125 c 1.82135,0.74236 3.88271,-0.14759 4.625,-1.96875 0,0 0.65047,-4.788933 2.4375,-6 2.74218,-1.858372 7.17147,-1.885185 9.9375,-0.0625 1.81255,1.194388 2.53124,6 2.53124,6 0.76254,1.81264 2.8753,2.63819 4.6875,1.875 l 9.84375,-4.125 c 1.8132,-0.7628 2.66908,-2.8435 1.90625,-4.65625 0,0 -2.94307,-3.868729 -2.53125,-6 0.63164,-3.268861 3.76751,-6.436171 7.03125,-7.09375 2.11064,-0.425252 5.96875,2.46875 5.96875,2.46875 1.82137,0.74236 3.88272,-0.11629 4.625,-1.9375 l 4.03125,-9.875 c 0.74236,-1.82135 -0.14759,-3.882716 -1.96875,-4.624996 0,0 -4.76193,-0.65925 -5.96875,-2.4375 -1.86022,-2.741024 -1.91208,-7.168545 -0.0937,-9.9375 1.19154,-1.814427 6,-2.53125 6,-2.53125 1.81303,-0.76239 2.66985,-2.87513 1.90625,-4.6875 l -4.15625,-9.84375 c -0.76238,-1.81299 -2.84391,-2.6692 -4.65625,-1.90625 0,0 -3.86918,2.945425 -6,2.53125 -3.26091,-0.633835 -6.40268,-3.7755 -7.0625,-7.03125 -0.42686,-2.106273 2.4375,-5.96875 2.4375,-5.96875 0.74237,-1.82136 -0.085,-3.882719 -1.90625,-4.624999 l -9.90625,-4.03125 c -0.45529,-0.18557 -0.9162,-0.288859 -1.375,-0.28125 z M 120.818,22.586264 c 13.80711,0 24.99999,11.19288 24.99999,25 0,13.807116 -11.19288,24.999996 -24.99999,24.999996 -13.80712,0 -25.000007,-11.19288 -25.000007,-24.999996 0,-13.80712 11.192887,-25 25.000007,-25 z"
       id="path3907"
       inkscape:connector-curvature="0"
       sodipodi:nodetypes="ccaaccccaaccccaaccccaaccccaaccccaaccccaaccccaacccccsssss" />
    <text
       xml:space="preserve"
       style="font-size:70px;font-style:normal;font-variant:normal;font-weight:normal;font-stretch:normal;line-height:125%;letter-spacing:0px;word-spacing:0px;fill:#000000;fill-opacity:1;stroke:none;font-family:Fabada;-inkscape-font-specification:Fabada"
       x="50.507626"
       y="111.40509"
       id="text3040"
       sodipodi:linespacing="125%"><tspan
         sodipodi:role="line"
         x="50.507626"
         y="111.40509"
         id="tspan3044" /></text>
    <g
       style="font-size:40px;font-style:normal;font-variant:normal;font-weight:normal;font-stretch:normal;line-height:125%;letter-spacing:0px;word-spacing:0px;fill:#3944ff;fill-opacity:1;stroke:#000000;stroke-opacity:0.07843137000000000;font-family:Fabada;-inkscape-font-specification:Fabada"
       id="text3048">
      <path
         style="font-size:70px;fill:#3944ff;stroke:#000000;stroke-opacity:0.07843137000000000;fill-opacity:1"
         d="m 175.1875,29.4375 c -6.66698,1.409903 -3.47089,10.196252 -4.15625,14.8125 0.33011,13.949292 -0.60934,28.080288 0.375,41.9375 2.02417,5.349768 10.62709,2.649259 9.375,-2.90625 0.87697,-3.130655 -1.59055,-11.963766 0.90625,-12.34375 11.59131,6.7256 28.71189,0.503997 31.53125,-13.0625 3.53395,-11.999877 -3.90026,-26.608956 -16.875,-28.15625 -6.97772,-0.772105 -14.14826,-0.198457 -21.15625,-0.28125 z M 192.5,39.125 c 9.80262,-0.752706 14.66051,11.597524 10.15625,19.21875 -4.9799,9.498231 -22.76868,6.096413 -22.44385,-5.25 -0.013,-2.083497 -1.96086,-13.767732 3.56885,-13.96875 2.90625,0 5.8125,0 8.71875,0 z"
         id="path3855"
         inkscape:connector-curvature="0"
         sodipodi:nodetypes="ccccccccccccc" />
      <path
         style="font-size:70px;fill:#3944ff;stroke:#000000;stroke-opacity:0.07843137000000000;fill-opacity:1"
         d="m 217.96875,29.4375 c -5.82286,0.544482 -5.04682,10.002125 0.75,9.6875 2.67123,0.858336 7.53062,-1.407553 9.46875,0.53125 0.29534,15.483645 -0.56157,31.146829 0.375,46.53125 1.99297,5.328245 10.61504,2.644951 9.375,-2.90625 0.22584,-14.646455 -0.44014,-29.742303 0.3125,-44.125 4.5096,-0.24178 13.82113,2.068296 14.03125,-5.09375 -0.61762,-6.762808 -9.40282,-4.404524 -13.875,-4.6875 -6.80831,0.04821 -13.64424,-0.09221 -20.4375,0.0625 z"
         id="path3857"
         inkscape:connector-curvature="0" />
      <path
         style="font-size:70px;fill:#3944ff;stroke:#000000;stroke-opacity:0.07843137000000000;fill-opacity:1"
         d="m 258.59375,28.625 c -6.8648,1.141788 -4.75641,10.677742 -4.88008,15.348826 0.17287,11.307284 -1.45676,22.764407 2.16133,33.682424 5.66277,15.818902 30.73912,17.260132 38.34375,2.375 5.54083,-10.234021 2.17121,-22.251049 3.28506,-33.372462 0.0167,-5.387788 2.29397,-13.32267 -2.66006,-17.346288 -4.43008,-2.78163 -7.60959,2.285548 -7.4375,7.15625 -0.61091,12.311973 1.18663,25.064015 -0.8125,37.125 -3.35958,10.557382 -21.44318,8.930756 -22.40625,-2.21875 -0.88917,-13.165419 0.62312,-26.790346 -0.65625,-39.90625 -0.83661,-1.905113 -2.8669,-3.078732 -4.9375,-2.84375 z"
         id="path3859"
         inkscape:connector-curvature="0"
         sodipodi:nodetypes="ccccccccccc" />
      <path
         style="font-size:70px;fill:#3944ff;stroke:#000000;stroke-opacity:0.07843137000000000;fill-opacity:1"
         d="m 324.5,28.625 c -11.99815,-0.044 -21.63498,11.354829 -20.53125,23.125 0.41173,11.477529 -0.74836,23.204918 0.4375,34.5625 2.12806,5.224514 9.21197,2.441107 9.3125,-3.03125 0.0473,-12.70904 -1.13291,-25.341455 0.78125,-37.71875 3.29014,-10.678618 21.36819,-9.005254 22.4375,2.21875 0.91234,12.705232 -0.65498,25.86438 0.65625,38.53125 2.09655,5.201974 10.53952,2.43883 9.3125,-3.03125 C 346.21535,70.147552 348.24716,56.677398 346,43.71875 343.61707,34.271522 334.04489,28.074051 324.5,28.625 z"
         id="path3861"
         inkscape:connector-curvature="0"
         sodipodi:nodetypes="cccccccccc" />
      <path
         style="font-size:70px;fill:#3944ff;stroke:#000000;stroke-opacity:0.07843137000000000;fill-opacity:1"
         d="m 358.875,28.625 c -6.48346,1.002308 -3.98615,9.43382 -4.34375,13.84375 0.34038,14.580463 -0.63636,29.377266 0.40625,43.84375 2.12711,5.228006 9.18752,2.200937 9.3125,-3.03125 -0.27069,-17.215049 0.51464,-34.594648 -0.34375,-51.71875 -0.87606,-1.916307 -2.90181,-3.201555 -5.03125,-2.9375 z"
         id="path3863"
         inkscape:connector-curvature="0"
         sodipodi:nodetypes="cccccc" />
      <path
         style="font-size:70px;fill:#3944ff;stroke:#000000;stroke-opacity:0.07843137000000000;fill-opacity:1"
         d="m 371.25,29.4375 c -5.8522,0.517269 -5.0792,9.992277 0.71875,9.6875 2.78847,0.683349 7.25067,-1.12426 9.46875,0.4375 0.31075,15.5147 -0.49338,30.397715 0.46429,45.821429 2.02544,5.348027 9.39757,3.708234 9.28571,-2.102679 0.2301,-14.637291 -0.44585,-29.780951 0.3125,-44.125 4.41789,-0.418265 13.11139,2.136335 14.03125,-4.5 0.42966,-5.717879 -6.71415,-5.455831 -10.875,-5.28125 -7.79814,0.04692 -15.62307,-0.09043 -23.40625,0.0625 z"
         id="path3865"
         inkscape:connector-curvature="0"
         sodipodi:nodetypes="ccccccccc" />
      <path
         style="font-size:70px;fill:#3944ff;stroke:#000000;stroke-opacity:0.07843137000000000;fill-opacity:1"
         d="m 409.6875,28.6875 c -6.78721,1.135961 -3.80491,10.016109 -4.375,14.65625 -0.14911,9.797333 7.18685,18.451442 16.5,20.5625 0.95372,7.486127 -0.13687,15.652277 0.78125,22.90625 2.5015,4.637979 9.35798,1.767876 9.03125,-3.53125 0.0703,-6.510854 -0.57193,-13.55983 0.3125,-19.59375 11.07373,-2.195128 16.83669,-13.695151 16.28125,-24.53125 0.46223,-4.832982 -0.0551,-11.426568 -5.78125,-10.40625 -6.54766,1.722203 -3.10233,10.272135 -4.03125,15.03125 0.24106,10.343336 -14.79214,14.514893 -20.84375,6.65625 -5.17232,-5.677175 0.23513,-14.652992 -4.03125,-20.46875 -1.06889,-0.901105 -2.41876,-1.464596 -3.84375,-1.28125 z"
         id="path3867"
         inkscape:connector-curvature="0"
         sodipodi:nodetypes="cccccccccccc" />
    </g>
    <path
       style="fill:#000000;fill-rule:evenodd;stroke:none"
       d="m 323.24881,59.38223 c 0,0 0,0 0,0 0,0 0,0 0,0 0,0 0,0 0,0 0,0 0,0 0,0 z"
       id="path3912"
       inkscape:path-effect="#path-effect3914;#path-effect3916"
       inkscape:original-d="m 323.24881,59.38223 c 0,0 7.57615,2.020305 0,0 z"
       inkscape:connector-curvature="0" />
    <path
       sodipodi:type="arc"
       style="fill:#3944e2;fill-opacity:1"
       id="path3922"
       sodipodi:cx="360.4982"
       sodipodi:cy="17.713436"
       sodipodi:rx="7.7024131"
       sodipodi:ry="8.0812206"
       d="m 368.20061,17.713436 c 0,4.463135 -3.44849,8.081221 -7.70241,8.081221 -4.25393,0 -7.70241,-3.618086 -7.70241,-8.081221 0,-4.463135 3.44848,-8.0812205 7.70241,-8.0812205 4.25392,0 7.70241,3.6180855 7.70241,8.0812205 z"
       transform="translate(-1.2626907,-2.7373093)" />
    <path
       style="fill:#ffa432;fill-rule:evenodd;stroke:none;fill-opacity:1"
       d="m 172.71875,41.03125 c -2.98525,0.0052 -5.92596,0.08146 -8.8125,0.25 -8.31911,0.485729 -16.17695,1.601359 -23.5,3.15625 0.98081,2.306855 1.83579,4.695753 2.46875,7.15625 6.73373,-1.107612 13.87019,-1.849638 21.375,-2.0625 10.15207,-0.287946 20.93856,0.412948 31.96875,2.46875 1.66964,-2.94129 3.56797,-5.691019 5.625,-8.21875 -0.40715,-0.07922 -0.81185,-0.174104 -1.21875,-0.25 -9.58427,-1.771682 -18.95051,-2.51564 -27.90625,-2.5 z m 145.84375,10 c -3.60259,3.875375 -8.5428,6.778628 -13.9375,8.65625 -4.97809,1.724225 -10.42175,2.49602 -16.0625,2.71875 -0.50429,0.01991 -1.02603,0.05119 -1.53125,0.0625 -1.76357,0.03995 -3.52474,0.0057 -5.28125,-0.0625 1.14428,3.221059 2.07113,6.57836 2.75,10.0625 0.9039,0.01106 1.80842,0.01346 2.71875,0 0.56607,-0.0085 1.14961,-0.04233 1.71875,-0.0625 6.36611,-0.225615 12.78389,-1.182701 18.9375,-3.28125 6.66581,-2.264317 12.88103,-6.036884 17.78125,-11.21875 -2.81276,-2.085279 -5.20269,-4.392547 -7.09375,-6.875 z M 403.40625,59.5 c -1.94846,1.264771 -4.0543,2.444198 -6.3125,3.5 0.69327,0.920659 1.41417,1.821485 2.15625,2.6875 2.46735,2.879397 5.21263,5.436169 8.1875,7.5 4.75897,3.241248 9.92318,5.021835 14.8125,5.71875 4.88932,0.696915 9.49416,0.296195 13.5,-0.75 4.52779,-1.192353 8.22058,-3.180756 11.09375,-5.28125 2.87316,-2.100493 4.94087,-4.330452 6.40625,-6.25 1.46538,-1.919548 2.32989,-3.548075 2.8125,-4.6875 0.48263,-1.139425 0.59407,-1.769726 0.40625,-1.875 -0.18782,-0.105274 -0.66216,0.344553 -1.46875,1.21875 -0.8066,0.874196 -1.95046,2.167456 -3.59375,3.6875 -1.6433,1.520044 -3.79344,3.2614 -6.5625,4.84375 -2.76907,1.582351 -6.17686,2.996216 -10.125,3.6875 -3.48958,0.61954 -7.42245,0.666531 -11.5,-0.1875 -4.07754,-0.85403 -8.30454,-2.610302 -12,-5.4375 -2.37064,-1.773088 -4.53138,-3.991544 -6.53125,-6.59375 -0.43764,-0.56946 -0.85966,-1.177991 -1.28125,-1.78125 z"
       id="path3942"
       inkscape:connector-curvature="0" />
  </g>
</svg>
